ffmpeg version N-55863-g9f38fac053-static https://johnvansickle.com/ffmpeg/  Copyright (c) 2000-2021 the FFmpeg developers
  built with gcc 8 (Debian 8.3.0-6)
  configuration: --enable-gpl --enable-version3 --enable-static --disable-debug --disable-ffplay --disable-indev=sndio --disable-outdev=sndio --cc=gcc --enable-fontconfig --enable-frei0r --enable-gnutls --enable-gmp --enable-libgme --enable-gray --enable-libaom --enable-libfribidi --enable-libass --enable-libvmaf --enable-libfreetype --enable-libmp3lame --enable-libopencore-amrnb --enable-libopencore-amrwb --enable-libopenjpeg --enable-librubberband --enable-libsoxr --enable-libspeex --enable-libsrt --enable-libvorbis --enable-libopus --enable-libtheora --enable-libvidstab --enable-libvo-amrwbenc --enable-libvpx --enable-libwebp --enable-libx264 --enable-libx265 --enable-libxml2 --enable-libdav1d --enable-libxvid --enable-libzvbi --enable-libzimg
  libavutil      56. 64.100 / 56. 64.100
  libavcodec     58.119.100 / 58.119.100
  libavformat    58. 65.101 / 58. 65.101
  libavdevice    58. 11.103 / 58. 11.103
  libavfilter     7.100.100 /  7.100.100
  libswscale      5.  8.100 /  5.  8.100
  libswresample   3.  8.100 /  3.  8.100
  libpostproc    55.  8.100 / 55.  8.100
Input #0, mov,mp4,m4a,3gp,3g2,mj2, from '/home/yiaapc5/public_html/f_data/data_userfiles/user_uploads/1134370236/v/1613177463.mp4':
  Metadata:
    major_brand     : mp42
    minor_version   : 0
    compatible_brands: isommp42
    creation_time   : 2021-01-29T11:42:26.000000Z
  Duration: 00:00:55.19, start: 0.000000, bitrate: 2631 kb/s
    Stream #0:0(und): Video: h264 (Main) (avc1 / 0x31637661), yuv420p(tv, bt709), 1280x720 [SAR 1:1 DAR 16:9], 2495 kb/s, 29.97 fps, 29.97 tbr, 11988 tbn, 59.94 tbc (default)
    Metadata:
      creation_time   : 2021-01-29T11:42:26.000000Z
      handler_name    : ISO Media file produced by Google Inc. Created on: 01/29/2021.
      vendor_id       : [0][0][0][0]
    Stream #0:1(und): Audio: aac (LC) (mp4a / 0x6134706D), 44100 Hz, stereo, fltp, 128 kb/s (default)
    Metadata:
      creation_time   : 2021-01-29T11:42:26.000000Z
      handler_name    : ISO Media file produced by Google Inc. Created on: 01/29/2021.
      vendor_id       : [0][0][0][0]
Codec AVOption rc_eq (Set rate control equation. When computing the expression, besides the standard functions defined in the section 'Expression Evaluation', the following functions are available: bits2qp(bits), qp2bits(qp). Also the following constants are available: iTex pTex tex mv fCode iCount mcVar var isI isP isB avgQP qComp avgIITex avgPITex avgPPTex avgBPTex avgTex.) specified for output file #0 (/home/yiaapc5/public_html/f_data/data_userfiles/user_media/1134370236/v/5e36b411eebb7d01b849200f978ec9b1.mob.nomob.mp4) has not been used for any stream. The most likely reason is either wrong type (e.g. a video option with no video streams) or that it is a private option of some encoder which was not actually used for any stream.
Stream mapping:
  Stream #0:0 -> #0:0 (h264 (native) -> h264 (libx264))
  Stream #0:1 -> #0:1 (aac (native) -> aac (native))
Press [q] to stop, [?] for help
[libx264 @ 0x77039c0] Application has requested 32 threads. Using a thread count greater than 16 is not recommended.
[libx264 @ 0x77039c0] using SAR=136/135
[libx264 @ 0x77039c0] frame MB size (30x17) > level limit (396)
[libx264 @ 0x77039c0] VBV bitrate (10000) > level limit (768)
[libx264 @ 0x77039c0] VBV buffer (10000) > level limit (2000)
[libx264 @ 0x77039c0] MB rate (15284) > level limit (11880)
[libx264 @ 0x77039c0] using cpu capabilities: MMX2 SSE2Fast SSSE3 SSE4.2 AVX
[libx264 @ 0x77039c0] profile Constrained Baseline, level 1.3, 4:2:0, 8-bit
[libx264 @ 0x77039c0] 264 - core 161 r3040 35417dc - H.264/MPEG-4 AVC codec - Copyleft 2003-2021 - http://www.videolan.org/x264.html - options: cabac=0 ref=1 deblock=1:0:0 analyse=0x1:0 me=hex subme=1 psy=1 psy_rd=1.00:0.00 mixed_ref=0 me_range=16 chroma_me=1 trellis=0 8x8dct=0 cqm=0 deadzone=21,11 fast_pskip=1 chroma_qp_offset=0 threads=32 lookahead_threads=2 sliced_threads=0 nr=0 decimate=1 interlaced=0 bluray_compat=0 constrained_intra=0 bframes=0 weightp=0 keyint=300 keyint_min=25 scenecut=40 intra_refresh=0 rc_lookahead=30 rc=abr mbtree=1 bitrate=1000 ratetol=1.0 qcomp=0.60 qpmin=10 qpmax=51 qpstep=4 vbv_maxrate=10000 vbv_bufsize=10000 nal_hrd=none filler=0 ip_ratio=1.41 aq=1:1.00
Output #0, mp4, to '/home/yiaapc5/public_html/f_data/data_userfiles/user_media/1134370236/v/5e36b411eebb7d01b849200f978ec9b1.mob.nomob.mp4':
  Metadata:
    major_brand     : mp42
    minor_version   : 0
    compatible_brands: isommp42
    encoder         : Lavf58.65.101
    Stream #0:0(und): Video: h264 (avc1 / 0x31637661), yuv420p(tv, bt709, progressive), 480x272 [SAR 136:135 DAR 16:9], q=2-31, 1000 kb/s, 29.97 fps, 11988 tbn (default)
    Metadata:
      creation_time   : 2021-01-29T11:42:26.000000Z
      handler_name    : ISO Media file produced by Google Inc. Created on: 01/29/2021.
      vendor_id       : [0][0][0][0]
      encoder         : Lavc58.119.100 libx264
    Side data:
      cpb: bitrate max/min/avg: 10000000/0/1000000 buffer size: 10000000 vbv_delay: N/A
    Stream #0:1(und): Audio: aac (LC) (mp4a / 0x6134706D), 44100 Hz, stereo, fltp, 128 kb/s (default)
    Metadata:
      creation_time   : 2021-01-29T11:42:26.000000Z
      handler_name    : ISO Media file produced by Google Inc. Created on: 01/29/2021.
      vendor_id       : [0][0][0][0]
      encoder         : Lavc58.119.100 aac
frame=    1 fps=0.0 q=0.0 size=       0kB time=00:00:00.30 bitrate=   1.3kbits/s speed=8.62x    frame=  197 fps=0.0 q=31.0 size=    1024kB time=00:00:06.57 bitrate=1276.6kbits/s speed=12.2x    frame=  409 fps=394 q=31.0 size=    1792kB time=00:00:13.65 bitrate=1075.2kbits/s speed=13.2x    frame=  624 fps=406 q=29.0 size=    2560kB time=00:00:20.80 bitrate=1008.0kbits/s speed=13.5x    frame=  823 fps=404 q=31.0 size=    3840kB time=00:00:27.44 bitrate=1146.2kbits/s speed=13.5x    frame= 1032 fps=407 q=30.0 size=    4608kB time=00:00:34.43 bitrate=1096.2kbits/s speed=13.6x    frame= 1230 fps=405 q=29.0 size=    5376kB time=00:00:41.02 bitrate=1073.4kbits/s speed=13.5x    frame= 1429 fps=404 q=29.0 size=    6144kB time=00:00:47.67 bitrate=1055.8kbits/s speed=13.5x    frame= 1638 fps=405 q=29.0 size=    7168kB time=00:00:54.63 bitrate=1074.8kbits/s speed=13.5x    frame= 1654 fps=403 q=-1.0 Lsize=    7872kB time=00:00:55.17 bitrate=1168.8kbits/s speed=13.5x    
video:6958kB audio:867kB subtitle:0kB other streams:0kB global headers:0kB muxing overhead: 0.602540%
[libx264 @ 0x77039c0] frame I:10    Avg QP:22.89  size: 20550
[libx264 @ 0x77039c0] frame P:1644  Avg QP:26.18  size:  4208
[libx264 @ 0x77039c0] mb I  I16..4:  9.6%  0.0% 90.4%
[libx264 @ 0x77039c0] mb P  I16..4:  3.2%  0.0%  0.0%  P16..4: 71.8%  0.0%  0.0%  0.0%  0.0%    skip:25.0%
[libx264 @ 0x77039c0] final ratefactor: 23.16
[libx264 @ 0x77039c0] coded y,uvDC,uvAC intra: 51.8% 64.7% 38.2% inter: 30.7% 28.5% 12.8%
[libx264 @ 0x77039c0] i16 v,h,dc,p: 37% 33% 19% 11%
[libx264 @ 0x77039c0] i4 v,h,dc,ddl,ddr,vr,hd,vl,hu: 20% 35%  8%  6%  5%  5%  6%  5%  9%
[libx264 @ 0x77039c0] i8c dc,h,v,p: 33% 31% 28%  8%
[libx264 @ 0x77039c0] kb/s:1032.68
[aac @ 0x7759e80] Qavg: 241.462
